<mxfile host="app.diagrams.net" modified="2023-05-31T11:57:05.537Z" agent="Mozilla/5.0 (Windows NT 10.0; Win64; x64) AppleWebKit/537.36 (KHTML, like Gecko) Chrome/113.0.0.0 Safari/537.36" etag="zDpbTSInSQAenUxfREzA" version="21.3.6" type="google">
  <diagram name="Page-1" id="e7e014a7-5840-1c2e-5031-d8a46d1fe8dd">
    <mxGraphModel grid="1" page="1" gridSize="10" guides="1" tooltips="1" connect="1" arrows="1" fold="1" pageScale="1" pageWidth="1169" pageHeight="826" background="none" math="0" shadow="0">
      <root>
        <mxCell id="0" />
        <mxCell id="1" parent="0" />
        <mxCell id="YoLqBDEFknBYgDho6AxP-61" value="" style="swimlane;childLayout=stackLayout;resizeParent=1;resizeParentMax=0;startSize=20;html=1;" vertex="1" parent="1">
          <mxGeometry x="120" y="50" width="795" height="750" as="geometry" />
        </mxCell>
        <mxCell id="YoLqBDEFknBYgDho6AxP-72" value="" style="endArrow=classic;html=1;rounded=0;exitX=1;exitY=0.5;exitDx=0;exitDy=0;entryX=0;entryY=0.5;entryDx=0;entryDy=0;" edge="1" parent="YoLqBDEFknBYgDho6AxP-61" source="YoLqBDEFknBYgDho6AxP-66" target="YoLqBDEFknBYgDho6AxP-67">
          <mxGeometry relative="1" as="geometry">
            <mxPoint x="289.99999999999955" y="190" as="sourcePoint" />
            <mxPoint x="389.99999999999955" y="190" as="targetPoint" />
            <Array as="points">
              <mxPoint x="319.99999999999955" y="100" />
            </Array>
          </mxGeometry>
        </mxCell>
        <mxCell id="YoLqBDEFknBYgDho6AxP-73" value="NO" style="edgeLabel;resizable=0;html=1;align=center;verticalAlign=middle;" connectable="0" vertex="1" parent="YoLqBDEFknBYgDho6AxP-72">
          <mxGeometry relative="1" as="geometry" />
        </mxCell>
        <mxCell id="YoLqBDEFknBYgDho6AxP-87" style="edgeStyle=orthogonalEdgeStyle;rounded=0;orthogonalLoop=1;jettySize=auto;html=1;exitX=0.5;exitY=1;exitDx=0;exitDy=0;entryX=0;entryY=0.5;entryDx=0;entryDy=0;" edge="1" parent="YoLqBDEFknBYgDho6AxP-61" source="YoLqBDEFknBYgDho6AxP-69" target="YoLqBDEFknBYgDho6AxP-86">
          <mxGeometry relative="1" as="geometry" />
        </mxCell>
        <mxCell id="YoLqBDEFknBYgDho6AxP-93" style="edgeStyle=orthogonalEdgeStyle;rounded=0;orthogonalLoop=1;jettySize=auto;html=1;exitX=0;exitY=0.5;exitDx=0;exitDy=0;entryX=0;entryY=0.75;entryDx=0;entryDy=0;" edge="1" parent="YoLqBDEFknBYgDho6AxP-61" source="YoLqBDEFknBYgDho6AxP-88" target="YoLqBDEFknBYgDho6AxP-69">
          <mxGeometry relative="1" as="geometry">
            <Array as="points">
              <mxPoint x="548" y="540" />
              <mxPoint x="10" y="540" />
              <mxPoint x="10" y="280" />
            </Array>
          </mxGeometry>
        </mxCell>
        <mxCell id="YoLqBDEFknBYgDho6AxP-94" value="NO&lt;br&gt;" style="edgeLabel;html=1;align=center;verticalAlign=middle;resizable=0;points=[];" connectable="0" vertex="1" parent="YoLqBDEFknBYgDho6AxP-93">
          <mxGeometry x="-0.1057" y="-2" relative="1" as="geometry">
            <mxPoint as="offset" />
          </mxGeometry>
        </mxCell>
        <mxCell id="YoLqBDEFknBYgDho6AxP-62" value="USER&amp;nbsp;" style="swimlane;startSize=20;html=1;" vertex="1" parent="YoLqBDEFknBYgDho6AxP-61">
          <mxGeometry y="20" width="465" height="730" as="geometry" />
        </mxCell>
        <mxCell id="YoLqBDEFknBYgDho6AxP-41" value="" style="ellipse;html=1;shape=startState;fillColor=#000000;strokeColor=#ff0000;" vertex="1" parent="YoLqBDEFknBYgDho6AxP-62">
          <mxGeometry x="39.999999999999545" y="40" width="30" height="30" as="geometry" />
        </mxCell>
        <mxCell id="YoLqBDEFknBYgDho6AxP-65" value="Navigate to the website" style="rounded=1;whiteSpace=wrap;html=1;" vertex="1" parent="YoLqBDEFknBYgDho6AxP-62">
          <mxGeometry x="20" y="100" width="90" height="50" as="geometry" />
        </mxCell>
        <mxCell id="YoLqBDEFknBYgDho6AxP-66" value="Have an account?" style="rhombus;whiteSpace=wrap;html=1;" vertex="1" parent="YoLqBDEFknBYgDho6AxP-62">
          <mxGeometry x="160" y="45" width="80" height="70" as="geometry" />
        </mxCell>
        <mxCell id="HhInka9hYnPLYSRgQPo5-4" style="edgeStyle=orthogonalEdgeStyle;rounded=0;orthogonalLoop=1;jettySize=auto;html=1;exitX=0.5;exitY=1;exitDx=0;exitDy=0;entryX=0.5;entryY=0;entryDx=0;entryDy=0;" edge="1" parent="YoLqBDEFknBYgDho6AxP-62" source="YoLqBDEFknBYgDho6AxP-68" target="HhInka9hYnPLYSRgQPo5-5">
          <mxGeometry relative="1" as="geometry">
            <mxPoint x="265" y="190" as="targetPoint" />
          </mxGeometry>
        </mxCell>
        <mxCell id="YoLqBDEFknBYgDho6AxP-68" value="Enter user data&amp;nbsp;" style="rounded=1;whiteSpace=wrap;html=1;" vertex="1" parent="YoLqBDEFknBYgDho6AxP-62">
          <mxGeometry x="220" y="140" width="90" height="30" as="geometry" />
        </mxCell>
        <mxCell id="YoLqBDEFknBYgDho6AxP-69" value="Prompt Login form" style="rounded=1;whiteSpace=wrap;html=1;" vertex="1" parent="YoLqBDEFknBYgDho6AxP-62">
          <mxGeometry x="30" y="230" width="90" height="40" as="geometry" />
        </mxCell>
        <mxCell id="YoLqBDEFknBYgDho6AxP-70" value="" style="endArrow=classic;html=1;rounded=0;exitX=0.5;exitY=1;exitDx=0;exitDy=0;entryX=0.413;entryY=0.025;entryDx=0;entryDy=0;entryPerimeter=0;" edge="1" parent="YoLqBDEFknBYgDho6AxP-62" source="YoLqBDEFknBYgDho6AxP-66" target="YoLqBDEFknBYgDho6AxP-69">
          <mxGeometry relative="1" as="geometry">
            <mxPoint x="49.999999999999545" y="170" as="sourcePoint" />
            <mxPoint x="149.99999999999955" y="170" as="targetPoint" />
            <Array as="points">
              <mxPoint x="199.99999999999955" y="190" />
              <mxPoint x="67" y="190" />
            </Array>
          </mxGeometry>
        </mxCell>
        <mxCell id="YoLqBDEFknBYgDho6AxP-71" value="YES" style="edgeLabel;resizable=0;html=1;align=center;verticalAlign=middle;" connectable="0" vertex="1" parent="YoLqBDEFknBYgDho6AxP-70">
          <mxGeometry relative="1" as="geometry" />
        </mxCell>
        <mxCell id="YoLqBDEFknBYgDho6AxP-75" value="" style="endArrow=classic;html=1;rounded=0;exitX=1;exitY=0.5;exitDx=0;exitDy=0;entryX=0;entryY=0.5;entryDx=0;entryDy=0;" edge="1" parent="YoLqBDEFknBYgDho6AxP-62" source="YoLqBDEFknBYgDho6AxP-65" target="YoLqBDEFknBYgDho6AxP-66">
          <mxGeometry width="50" height="50" relative="1" as="geometry">
            <mxPoint x="59.999999999999545" y="240" as="sourcePoint" />
            <mxPoint x="109.99999999999955" y="190" as="targetPoint" />
            <Array as="points">
              <mxPoint x="110" y="80" />
            </Array>
          </mxGeometry>
        </mxCell>
        <mxCell id="YoLqBDEFknBYgDho6AxP-76" value="" style="endArrow=classic;html=1;rounded=0;exitX=0.5;exitY=1;exitDx=0;exitDy=0;entryX=0.384;entryY=0.012;entryDx=0;entryDy=0;entryPerimeter=0;" edge="1" parent="YoLqBDEFknBYgDho6AxP-62" source="YoLqBDEFknBYgDho6AxP-41" target="YoLqBDEFknBYgDho6AxP-65">
          <mxGeometry width="50" height="50" relative="1" as="geometry">
            <mxPoint x="59.999999999999545" y="240" as="sourcePoint" />
            <mxPoint x="109.99999999999955" y="190" as="targetPoint" />
          </mxGeometry>
        </mxCell>
        <mxCell id="HhInka9hYnPLYSRgQPo5-7" style="edgeStyle=orthogonalEdgeStyle;rounded=0;orthogonalLoop=1;jettySize=auto;html=1;exitX=0.5;exitY=1;exitDx=0;exitDy=0;" edge="1" parent="YoLqBDEFknBYgDho6AxP-62" source="HhInka9hYnPLYSRgQPo5-5" target="HhInka9hYnPLYSRgQPo5-6">
          <mxGeometry relative="1" as="geometry" />
        </mxCell>
        <mxCell id="HhInka9hYnPLYSRgQPo5-5" value="completes reCaptcha" style="rounded=1;whiteSpace=wrap;html=1;" vertex="1" parent="YoLqBDEFknBYgDho6AxP-62">
          <mxGeometry x="340" y="150" width="70" height="30" as="geometry" />
        </mxCell>
        <mxCell id="HhInka9hYnPLYSRgQPo5-6" value="register" style="rounded=1;whiteSpace=wrap;html=1;" vertex="1" parent="YoLqBDEFknBYgDho6AxP-62">
          <mxGeometry x="340" y="210" width="70" height="30" as="geometry" />
        </mxCell>
        <mxCell id="HhInka9hYnPLYSRgQPo5-15" value="confirm email&amp;nbsp;" style="rounded=1;whiteSpace=wrap;html=1;" vertex="1" parent="YoLqBDEFknBYgDho6AxP-62">
          <mxGeometry x="330" y="323" width="70" height="40" as="geometry" />
        </mxCell>
        <mxCell id="HhInka9hYnPLYSRgQPo5-2" style="edgeStyle=orthogonalEdgeStyle;rounded=0;orthogonalLoop=1;jettySize=auto;html=1;exitX=0.25;exitY=1;exitDx=0;exitDy=0;entryX=0.84;entryY=0.087;entryDx=0;entryDy=0;entryPerimeter=0;" edge="1" parent="YoLqBDEFknBYgDho6AxP-61" source="YoLqBDEFknBYgDho6AxP-67" target="YoLqBDEFknBYgDho6AxP-68">
          <mxGeometry relative="1" as="geometry" />
        </mxCell>
        <mxCell id="HhInka9hYnPLYSRgQPo5-18" style="edgeStyle=orthogonalEdgeStyle;rounded=0;orthogonalLoop=1;jettySize=auto;html=1;exitX=0.5;exitY=1;exitDx=0;exitDy=0;" edge="1" parent="YoLqBDEFknBYgDho6AxP-61" source="HhInka9hYnPLYSRgQPo5-13" target="HhInka9hYnPLYSRgQPo5-15">
          <mxGeometry relative="1" as="geometry">
            <Array as="points">
              <mxPoint x="700" y="280" />
              <mxPoint x="365" y="280" />
            </Array>
          </mxGeometry>
        </mxCell>
        <mxCell id="HhInka9hYnPLYSRgQPo5-19" style="edgeStyle=orthogonalEdgeStyle;rounded=0;orthogonalLoop=1;jettySize=auto;html=1;exitX=1;exitY=0.5;exitDx=0;exitDy=0;entryX=0;entryY=0.5;entryDx=0;entryDy=0;" edge="1" parent="YoLqBDEFknBYgDho6AxP-61" source="HhInka9hYnPLYSRgQPo5-15" target="YoLqBDEFknBYgDho6AxP-80">
          <mxGeometry relative="1" as="geometry" />
        </mxCell>
        <mxCell id="HhInka9hYnPLYSRgQPo5-21" style="edgeStyle=orthogonalEdgeStyle;rounded=0;orthogonalLoop=1;jettySize=auto;html=1;exitX=1;exitY=0.5;exitDx=0;exitDy=0;entryX=1;entryY=0.5;entryDx=0;entryDy=0;" edge="1" parent="YoLqBDEFknBYgDho6AxP-61" source="HhInka9hYnPLYSRgQPo5-6" target="HhInka9hYnPLYSRgQPo5-8">
          <mxGeometry relative="1" as="geometry">
            <Array as="points">
              <mxPoint x="410" y="225" />
            </Array>
          </mxGeometry>
        </mxCell>
        <mxCell id="YoLqBDEFknBYgDho6AxP-63" value="SYSTEM" style="swimlane;startSize=20;html=1;" vertex="1" parent="YoLqBDEFknBYgDho6AxP-61">
          <mxGeometry x="465" y="20" width="330" height="730" as="geometry" />
        </mxCell>
        <mxCell id="YoLqBDEFknBYgDho6AxP-67" value="Prompt Registration&amp;nbsp;&lt;br&gt;Form&amp;nbsp;" style="rounded=1;whiteSpace=wrap;html=1;" vertex="1" parent="YoLqBDEFknBYgDho6AxP-63">
          <mxGeometry x="37.5" y="60" width="120" height="40" as="geometry" />
        </mxCell>
        <mxCell id="HhInka9hYnPLYSRgQPo5-17" style="edgeStyle=orthogonalEdgeStyle;rounded=0;orthogonalLoop=1;jettySize=auto;html=1;exitX=1;exitY=0.5;exitDx=0;exitDy=0;entryX=1;entryY=0.5;entryDx=0;entryDy=0;" edge="1" parent="YoLqBDEFknBYgDho6AxP-63" source="YoLqBDEFknBYgDho6AxP-80" target="YoLqBDEFknBYgDho6AxP-82">
          <mxGeometry relative="1" as="geometry" />
        </mxCell>
        <mxCell id="YoLqBDEFknBYgDho6AxP-80" value="save user information" style="rounded=1;whiteSpace=wrap;html=1;" vertex="1" parent="YoLqBDEFknBYgDho6AxP-63">
          <mxGeometry x="75" y="323" width="90" height="40" as="geometry" />
        </mxCell>
        <mxCell id="YoLqBDEFknBYgDho6AxP-85" style="edgeStyle=orthogonalEdgeStyle;rounded=0;orthogonalLoop=1;jettySize=auto;html=1;exitX=0.5;exitY=1;exitDx=0;exitDy=0;entryX=0.5;entryY=0;entryDx=0;entryDy=0;" edge="1" parent="YoLqBDEFknBYgDho6AxP-63" source="YoLqBDEFknBYgDho6AxP-82" target="YoLqBDEFknBYgDho6AxP-84">
          <mxGeometry relative="1" as="geometry" />
        </mxCell>
        <mxCell id="YoLqBDEFknBYgDho6AxP-82" value="Display Main Page" style="rounded=1;whiteSpace=wrap;html=1;" vertex="1" parent="YoLqBDEFknBYgDho6AxP-63">
          <mxGeometry x="85" y="590" width="100" height="40" as="geometry" />
        </mxCell>
        <mxCell id="YoLqBDEFknBYgDho6AxP-84" value="" style="ellipse;html=1;shape=endState;fillColor=#000000;strokeColor=#ff0000;" vertex="1" parent="YoLqBDEFknBYgDho6AxP-63">
          <mxGeometry x="120" y="660" width="30" height="30" as="geometry" />
        </mxCell>
        <mxCell id="YoLqBDEFknBYgDho6AxP-89" style="edgeStyle=orthogonalEdgeStyle;rounded=0;orthogonalLoop=1;jettySize=auto;html=1;exitX=1;exitY=0.5;exitDx=0;exitDy=0;entryX=0.5;entryY=0;entryDx=0;entryDy=0;" edge="1" parent="YoLqBDEFknBYgDho6AxP-63" source="YoLqBDEFknBYgDho6AxP-86" target="YoLqBDEFknBYgDho6AxP-88">
          <mxGeometry relative="1" as="geometry">
            <Array as="points">
              <mxPoint x="135" y="420" />
            </Array>
          </mxGeometry>
        </mxCell>
        <mxCell id="YoLqBDEFknBYgDho6AxP-86" value="Validate input" style="rounded=1;whiteSpace=wrap;html=1;" vertex="1" parent="YoLqBDEFknBYgDho6AxP-63">
          <mxGeometry x="75" y="400" width="95" height="40" as="geometry" />
        </mxCell>
        <mxCell id="HhInka9hYnPLYSRgQPo5-16" value="yes" style="edgeStyle=orthogonalEdgeStyle;rounded=0;orthogonalLoop=1;jettySize=auto;html=1;exitX=0.5;exitY=1;exitDx=0;exitDy=0;entryX=0.5;entryY=0;entryDx=0;entryDy=0;" edge="1" parent="YoLqBDEFknBYgDho6AxP-63" source="YoLqBDEFknBYgDho6AxP-88" target="YoLqBDEFknBYgDho6AxP-82">
          <mxGeometry relative="1" as="geometry" />
        </mxCell>
        <mxCell id="YoLqBDEFknBYgDho6AxP-88" value="correct login info?" style="rhombus;whiteSpace=wrap;html=1;" vertex="1" parent="YoLqBDEFknBYgDho6AxP-63">
          <mxGeometry x="82.5" y="490" width="105" height="57" as="geometry" />
        </mxCell>
        <mxCell id="HhInka9hYnPLYSRgQPo5-20" value="yes" style="edgeStyle=orthogonalEdgeStyle;rounded=0;orthogonalLoop=1;jettySize=auto;html=1;exitX=0;exitY=0.5;exitDx=0;exitDy=0;entryX=0;entryY=0.5;entryDx=0;entryDy=0;" edge="1" parent="YoLqBDEFknBYgDho6AxP-63" source="HhInka9hYnPLYSRgQPo5-8" target="HhInka9hYnPLYSRgQPo5-13">
          <mxGeometry relative="1" as="geometry" />
        </mxCell>
        <mxCell id="HhInka9hYnPLYSRgQPo5-22" style="edgeStyle=orthogonalEdgeStyle;rounded=0;orthogonalLoop=1;jettySize=auto;html=1;exitX=0.5;exitY=1;exitDx=0;exitDy=0;entryX=0.5;entryY=1;entryDx=0;entryDy=0;" edge="1" parent="YoLqBDEFknBYgDho6AxP-63" source="HhInka9hYnPLYSRgQPo5-8" target="YoLqBDEFknBYgDho6AxP-67">
          <mxGeometry relative="1" as="geometry" />
        </mxCell>
        <mxCell id="HhInka9hYnPLYSRgQPo5-23" value="no" style="edgeLabel;html=1;align=center;verticalAlign=middle;resizable=0;points=[];" connectable="0" vertex="1" parent="HhInka9hYnPLYSRgQPo5-22">
          <mxGeometry x="-0.1653" y="4" relative="1" as="geometry">
            <mxPoint as="offset" />
          </mxGeometry>
        </mxCell>
        <mxCell id="HhInka9hYnPLYSRgQPo5-8" value="validate user input?" style="rhombus;whiteSpace=wrap;html=1;direction=west;" vertex="1" parent="YoLqBDEFknBYgDho6AxP-63">
          <mxGeometry x="55" y="180" width="85" height="50" as="geometry" />
        </mxCell>
        <mxCell id="HhInka9hYnPLYSRgQPo5-13" value="send confirmation email" style="rounded=1;whiteSpace=wrap;html=1;" vertex="1" parent="YoLqBDEFknBYgDho6AxP-63">
          <mxGeometry x="200" y="180" width="70" height="45" as="geometry" />
        </mxCell>
      </root>
    </mxGraphModel>
  </diagram>
</mxfile>
